<?xml version="1.0" standalone="no"?>
<!DOCTYPE svg PUBLIC "-//W3C//DTD SVG 20010904//EN"
 "http://www.w3.org/TR/2001/REC-SVG-20010904/DTD/svg10.dtd">
<svg version="1.0" xmlns="http://www.w3.org/2000/svg"
 width="700.000000pt" height="700.000000pt" viewBox="0 0 700.000000 700.000000"
 preserveAspectRatio="xMidYMid meet">
<metadata>
Created by potrace 1.11, written by Peter Selinger 2001-2013
</metadata>
<g transform="translate(0.000000,700.000000) scale(0.100000,-0.100000)"
fill="#000000" stroke="none">
<path d="M1275 4378 c-112 -57 -113 -58 -216 -150 -65 -59 -371 -288 -384
-288 -3 0 -5 23 -5 50 l0 50 -89 0 -88 0 -59 -140 c-32 -77 -61 -140 -64 -140
-3 0 -32 63 -64 140 l-59 141 -89 -3 -90 -3 0 -263 c1 -145 3 -266 6 -269 8
-8 117 -9 122 -1 3 4 5 34 5 66 l1 59 46 22 c26 13 48 19 49 14 17 -48 30 -58
73 -61 l45 -3 34 81 c18 44 37 80 42 80 5 0 8 5 6 11 -1 6 8 17 20 25 l21 15
1 -153 c1 -83 4 -154 6 -157 3 -2 31 -4 62 -4 l58 -1 3 188 c2 132 6 191 15
199 22 22 87 68 87 63 0 -3 17 11 38 30 20 19 45 37 55 40 9 3 17 10 17 16 0
5 7 7 16 4 8 -3 13 -2 10 2 -3 5 3 14 12 20 9 7 38 27 63 45 38 27 157 128
204 174 7 7 15 9 19 6 3 -4 6 -2 6 4 0 15 176 95 197 89 39 -12 130 -16 154
-7 38 14 164 -51 252 -131 100 -89 97 -88 199 -95 132 -10 186 -6 353 21 11 2
72 7 135 11 l115 7 90 -36 c49 -20 92 -36 96 -36 4 0 26 -11 50 -24 42 -24 42
-25 14 -24 -55 1 -55 1 -55 -54 l0 -53 65 0 65 0 0 43 c0 45 5 49 34 27 11 -8
64 -29 119 -46 l99 -31 -22 -23 c-15 -16 -30 -22 -48 -20 -51 7 -60 -1 -59
-56 0 -41 -5 -55 -27 -78 -24 -25 -53 -112 -56 -163 0 -5 18 -8 40 -8 42 0 42
0 42 -62 0 -40 -1 -40 63 -40 73 0 70 -2 70 50 0 40 3 47 20 47 11 0 19 -5 18
-12 -2 -6 -5 -29 -9 -50 l-6 -39 99 0 98 1 1 -485 c0 -267 3 -497 7 -511 4
-15 15 -29 24 -31 10 -2 221 -4 469 -4 367 1 454 4 467 15 15 12 17 62 17 532
0 581 4 549 -73 550 -23 0 -224 1 -447 2 -460 2 -413 -9 -398 92 4 29 4 53 -2
59 -6 6 -10 27 -10 48 0 21 -7 56 -16 78 -10 24 -13 45 -8 50 8 7 146 41 166
41 28 0 98 36 162 85 42 31 76 58 76 59 0 1 -12 5 -26 8 -19 3 -41 -7 -87 -41
-48 -35 -81 -50 -152 -68 -123 -32 -129 -32 -121 9 3 17 8 47 11 65 l5 32 -87
0 -88 0 -41 -47 -41 -47 -93 28 c-51 15 -137 50 -192 77 -158 80 -323 141
-361 134 -17 -2 -74 -7 -125 -10 -52 -3 -108 -8 -125 -10 -18 -3 -57 -9 -87
-14 -48 -8 -104 -9 -270 -2 -28 1 -50 15 -115 72 -97 86 -151 115 -241 129
-38 6 -80 13 -94 15 -14 2 -50 7 -80 10 -30 4 -57 8 -60 10 -3 1 -50 -20 -105
-47z m2093 -325 c16 -2 21 1 16 10 -5 8 -2 8 9 -2 9 -7 17 -9 17 -3 0 5 10 9
23 8 17 -1 23 -7 24 -28 0 -16 -3 -28 -7 -28 -4 0 -6 -13 -5 -30 1 -16 -1 -30
-6 -30 -5 0 -9 4 -9 9 0 4 -15 7 -32 6 -18 -1 -39 3 -45 8 -9 6 -13 5 -13 -4
0 -9 -3 -10 -8 -4 -4 6 -11 11 -17 12 -5 1 -19 5 -29 9 -15 6 -17 4 -11 -7 5
-8 4 -11 0 -6 -5 4 -10 14 -11 22 -2 12 2 12 17 5 24 -14 26 5 2 19 -17 10
-17 10 0 11 10 0 15 5 12 10 -6 9 8 14 28 11 4 0 7 5 7 12 0 7 3 8 8 2 4 -5
17 -11 30 -12z m-147 -135 c-4 -12 -13 -23 -20 -24 -6 -1 -7 0 -1 3 5 2 10 13
10 24 0 10 4 19 10 19 5 0 6 -9 1 -22z m36 -1 c0 -8 -6 -14 -14 -14 -9 0 -10
4 -2 14 6 7 12 13 14 13 1 0 2 -6 2 -13z m168 -25 c-3 -3 -11 0 -18 7 -9 10
-8 11 6 5 10 -3 15 -9 12 -12z m-3181 -100 c20 -46 36 -84 36 -86 0 -2 -18
-15 -40 -30 l-40 -26 0 117 c0 64 2 114 4 112 2 -2 20 -41 40 -87z m296 73 c0
-8 -4 -15 -10 -15 -5 0 -7 7 -4 15 4 8 8 15 10 15 2 0 4 -7 4 -15z m2728 -101
c-9 -46 -12 -51 -35 -48 -39 4 -44 17 -23 52 16 26 57 56 67 48 0 0 -3 -24 -9
-52z m53 14 c11 -8 10 -9 -3 -5 -11 4 -18 -2 -22 -19 -4 -13 -11 -24 -16 -24
-5 0 -3 12 5 26 7 15 11 34 8 43 -4 13 -3 13 5 2 5 -7 16 -18 23 -23z m19 -38
c0 -5 -7 -7 -15 -4 -8 4 -15 8 -15 10 0 2 7 4 15 4 8 0 15 -4 15 -10z m-12
-35 c6 -14 10 -25 8 -25 -2 0 -11 11 -20 25 -9 14 -13 25 -8 25 5 0 14 -11 20
-25z m-8 -39 c0 -6 -5 -4 -10 4 -9 14 -14 7 -11 -13 1 -5 -4 -5 -10 -2 -7 5
-7 11 -1 17 6 6 8 18 5 27 -3 12 -1 11 11 -3 9 -11 16 -25 16 -30z m-105 16
c-3 -3 -11 0 -18 7 -9 10 -8 11 6 5 10 -3 15 -9 12 -12z m55 -17 c0 -2 -10 -9
-22 -15 -22 -11 -22 -10 -4 4 21 17 26 19 26 11z m64 -23 c3 -5 -1 -9 -9 -9
-8 0 -15 4 -15 9 0 4 4 8 9 8 6 0 12 -4 15 -8z m-29 -21 c3 -5 0 -13 -6 -17
-7 -4 -9 -3 -5 4 3 6 -3 12 -16 15 -23 4 -23 4 -1 6 12 0 24 -3 28 -8z m31
-38 c-3 -4 -6 -1 -6 6 0 7 -4 9 -10 6 -6 -4 -7 1 -3 11 6 15 7 15 15 -1 6 -9
7 -19 4 -22z m-66 23 c0 -3 -4 -8 -10 -11 -5 -3 -10 -1 -10 4 0 6 5 11 10 11
6 0 10 -2 10 -4z m36 -35 c1 -6 0 -7 -2 -2 -3 6 -12 7 -20 4 -8 -3 -14 -1 -14
5 0 14 33 8 36 -7z m21 -23 c-3 -8 -6 -5 -6 6 -1 11 2 17 5 13 3 -3 4 -12 1
-19z m-22 -8 c-6 -10 9 -15 30 -10 6 1 7 -2 2 -6 -15 -15 -45 -11 -42 5 5 22
4 21 11 21 3 0 2 -4 -1 -10z m-38 -14 c0 -8 -6 -12 -15 -9 -11 5 -11 7 0 14 7
5 13 9 14 9 0 0 1 -6 1 -14z"/>
<path d="M3413 4044 c-5 -13 -7 -13 -14 -2 -7 11 -9 11 -9 -1 0 -11 -3 -11
-16 0 -13 10 -17 10 -25 -2 -5 -8 -9 -9 -9 -3 0 15 -28 14 -34 -2 -8 -22 5
-52 22 -49 10 1 22 0 27 -3 6 -4 26 -7 46 -7 28 -1 36 3 34 15 -1 8 0 20 4 25
11 19 9 34 -5 39 -8 3 -17 -1 -21 -10z m15 -31 c-6 -7 -7 -13 -4 -13 4 0 4 -5
1 -11 -5 -7 -13 -4 -26 7 -17 16 -19 16 -25 -1 -6 -16 -8 -16 -16 -1 -5 9 -14
16 -19 16 -6 0 -7 -5 -3 -12 4 -7 3 -8 -5 -4 -6 4 -9 11 -6 16 3 4 -1 11 -7
14 -7 4 -3 4 9 2 13 -2 26 0 29 5 3 5 11 6 17 2 21 -13 38 -12 44 4 5 12 7 12
14 2 4 -7 3 -19 -3 -26z"/>
<path d="M3356 4021 c-4 -5 -2 -12 3 -15 5 -4 12 -2 15 3 4 5 2 12 -3 15 -5 4
-12 2 -15 -3z"/>
<path d="M3415 4020 c-4 -6 -11 -8 -16 -5 -16 10 -10 -2 9 -16 9 -7 14 -9 10
-5 -4 5 -3 15 3 23 6 7 9 13 6 13 -3 0 -9 -5 -12 -10z"/>
<path d="M4575 4406 c-126 -31 -299 -100 -395 -157 -45 -26 -132 -74 -193
-105 -62 -31 -116 -60 -120 -64 -4 -3 11 -7 33 -8 45 -2 114 29 285 129 123
71 255 124 400 159 l110 26 101 -31 c61 -19 137 -53 195 -87 106 -62 243 -133
399 -203 98 -45 260 -149 260 -167 0 -12 -120 -312 -129 -320 -3 -4 -40 75
-80 177 -67 167 -91 209 -105 186 -3 -5 30 -97 74 -205 43 -109 80 -205 81
-214 3 -24 -24 -83 -48 -104 -11 -10 -35 -20 -54 -22 -19 -2 -37 -4 -40 -5 -3
0 -6 -7 -6 -15 0 -20 52 -19 100 2 47 19 55 34 161 303 l78 195 72 -2 c39 -1
74 -3 79 -3 4 -1 7 -82 7 -181 0 -167 1 -180 18 -180 17 0 18 12 18 180 -1 99
1 180 4 180 3 1 28 3 55 5 28 3 65 7 83 10 18 3 32 1 32 -5 0 -6 11 -3 24 5
30 20 93 22 169 6 51 -11 60 -17 72 -44 23 -55 17 -60 -75 -63 -100 -4 -167
-32 -189 -79 -20 -42 -18 -115 4 -149 49 -75 180 -73 236 3 31 42 42 39 37 -9
-3 -33 0 -40 14 -40 10 0 18 8 19 18 4 74 1 264 -5 295 -9 49 0 48 99 -12 l80
-48 3 -126 c2 -116 4 -127 21 -127 17 0 19 9 19 88 0 48 1 99 1 115 l1 27 38
-23 c20 -13 46 -27 57 -30 30 -9 95 -17 95 -13 0 3 -41 28 -91 57 -50 29 -93
58 -96 66 -9 23 31 86 67 105 45 24 108 23 138 -2 35 -29 42 -70 42 -238 0
-141 1 -153 18 -150 15 3 17 19 18 146 1 79 -3 163 -8 187 -21 97 -124 136
-220 83 -20 -11 -41 -30 -46 -42 -10 -20 -11 -20 -12 -1 -1 11 -2 28 -1 38 2
11 -5 17 -18 17 -19 0 -21 -6 -21 -65 l0 -65 -72 44 c-40 24 -100 51 -133 61
-33 9 -65 21 -71 26 -20 16 -97 14 -209 -7 -10 -2 -51 -6 -90 -10 -38 -3 -73
-8 -76 -10 -12 -7 -15 19 -14 109 1 78 -1 87 -17 87 -16 0 -18 -10 -18 -95 l0
-95 -70 0 c-51 0 -69 3 -67 13 1 6 -5 11 -13 10 -8 -1 -51 24 -95 57 -44 33
-83 60 -87 60 -18 0 -392 186 -486 242 -99 58 -288 129 -337 127 -11 -1 -61
-11 -110 -23z m1747 -655 c13 -2 -1 -81 -23 -130 -58 -136 -249 -106 -226 36
12 71 73 102 192 97 28 -1 53 -2 57 -3z"/>
<path d="M4730 3798 c0 -280 1 -288 20 -288 19 0 20 8 22 247 l3 247 71 -189
c68 -184 72 -190 98 -190 27 0 31 6 98 185 38 102 72 187 74 189 2 3 4 -94 3
-215 -1 -296 -2 -274 21 -274 20 0 20 5 18 288 l-3 287 -23 1 c-28 2 -29 0
-122 -249 -39 -104 -66 -163 -71 -156 -4 7 -40 102 -80 210 -72 193 -74 198
-101 197 l-28 -1 0 -289z"/>
<path d="M2282 4056 c-10 -18 -5 -548 6 -555 8 -5 76 -6 115 -2 4 1 7 56 7
124 0 102 3 127 19 153 23 37 65 49 99 28 24 -16 24 -12 26 -176 1 -64 4 -119
7 -122 10 -11 119 -11 123 -1 2 6 3 75 2 155 -1 118 -5 152 -20 183 -40 82
-156 94 -233 24 l-23 -20 0 106 c0 79 -3 107 -12 108 -68 4 -111 2 -116 -5z"/>
<path d="M878 3906 l-68 -8 0 -49 c0 -27 2 -49 4 -49 3 0 17 5 32 10 15 6 55
12 88 14 70 4 116 -14 116 -44 0 -17 -7 -20 -47 -21 -141 -1 -204 -30 -224
-101 -25 -91 36 -168 132 -168 58 0 90 11 118 41 l21 23 0 -27 c0 -28 3 -29
75 -29 67 0 62 -12 60 141 -1 76 -8 154 -14 173 -28 85 -125 116 -293 94z
m172 -250 c0 -34 -39 -74 -77 -80 -60 -8 -93 72 -39 94 11 5 42 9 69 9 43 1
47 -1 47 -23z"/>
<path d="M1538 3909 c-34 -9 -88 -41 -88 -52 0 -4 -4 -6 -9 -2 -6 3 -8 14 -6
25 3 13 -2 21 -13 22 -40 3 -98 4 -107 1 -8 -2 -13 -370 -6 -403 1 -3 29 -5
63 -4 l63 1 1 104 c0 57 4 121 8 141 7 41 46 78 74 73 9 -2 23 -4 30 -4 26 -2
37 -57 36 -185 l0 -126 33 -1 c18 -1 44 -1 58 -1 14 0 29 0 33 1 12 1 6 301
-6 331 -15 37 -49 69 -80 75 -51 11 -57 12 -84 4z"/>
<path d="M1975 3905 c-115 -26 -167 -90 -166 -206 0 -139 84 -212 242 -211 28
1 65 6 83 12 31 10 32 13 32 60 0 41 -3 49 -16 44 -121 -52 -206 -10 -204 102
0 45 5 59 26 80 33 34 99 42 152 20 21 -9 39 -16 40 -16 1 0 2 22 2 50 0 47
-2 50 -31 60 -49 15 -107 17 -160 5z"/>
<path d="M2810 3866 c-1 -51 -1 -347 0 -361 0 -9 16 -10 108 -6 l22 1 0 200
c0 153 -3 200 -12 201 -7 1 -37 2 -65 3 l-53 3 0 -41z"/>
</g>
</svg>
